# xmcd
#
# Track frame offsets:
#   150
#   16202
#   30887
#   46654
#   63863
#   78216
#   93549
#   108693
#   123582
#   138581
#   154074
#   168808
#   183045
#
# Disc length: 2627 seconds
#
# Revision: 0
# Processed by: cddbd v1.5.1PL0 Copyright (c) Steve Scherf et al.
# Submitted via: uFREEDB ActiveX Control 1.5
#
DISCID=940a410d
DTITLE=João Luiz Corrêa - O Trem Campeiro 02
DYEAR=2004
DGENRE=Country
TTITLE0=Só por causa do Bugio
TTITLE1=Florão de loura
TTITLE2=Toque de Galpão
TTITLE3=Esta saudade campeira
TTITLE4=Surungo de trás do cerro
TTITLE5=Saudade danada
TTITLE6=Proseando co'tempo
TTITLE7=De volta pras casas
TTITLE8=Voltando ao passado
TTITLE9=Meu carijo de emoções
TTITLE10=Tranco da vaneira
TTITLE11=De namoro com a morena
TTITLE12=Roda e Balança
EXTD=
EXTT0=
EXTT1=
EXTT2=
EXTT3=
EXTT4=
EXTT5=
EXTT6=
EXTT7=
EXTT8=
EXTT9=
EXTT10=
EXTT11=
EXTT12=
PLAYORDER=
